<svg width="420" height="300" viewBox="0 0 420 300" fill="none" xmlns="http://www.w3.org/2000/svg">
  <rect x="44" y="38" width="332" height="224" rx="30" fill="#F7FAFF"/>
  <circle cx="134" cy="122" r="38" fill="#0B5CFF"/>
  <circle cx="210" cy="104" r="44" fill="#25C982"/>
  <circle cx="286" cy="122" r="38" fill="#FFC84D"/>
  <path d="M82 230C89 188 112 166 134 166C156 166 179 188 186 230" fill="#DCEBFF"/>
  <path d="M152 230C160 182 185 154 210 154C235 154 260 182 268 230" fill="#E5F8EF"/>
  <path d="M234 230C241 188 264 166 286 166C308 166 331 188 338 230" fill="#FFF3CF"/>
  <path d="M116 122H152M192 104H228M268 122H304" stroke="white" stroke-width="9" stroke-linecap="round"/>
  <rect x="72" y="232" width="276" height="20" rx="10" fill="#0F2147"/>
</svg>
